/* XPM */
static const char * xpm_mozilla_mailnews_icon[] = {
"24 24 130 2",
"  	c None",
". 	c #B1BAC3",
"+ 	c #6E757F",
"@ 	c #424852",
"# 	c #373C47",
"$ 	c #161A25",
"% 	c #2F3540",
"& 	c #323944",
"* 	c #303742",
"= 	c #2D3540",
"- 	c #A6AEB8",
"; 	c #4D535D",
"> 	c #656D77",
", 	c #ABB0B7",
"' 	c #CDCFD2",
") 	c #E8ECEF",
"! 	c #F8F9FA",
"~ 	c #F4F6F8",
"{ 	c #EEF1F3",
"] 	c #EAEEF1",
"^ 	c #E7EBEF",
"/ 	c #E4E9ED",
"( 	c #C8D0D6",
"_ 	c #B3BBC2",
": 	c #7D8790",
"< 	c #2C3843",
"[ 	c #212530",
"} 	c #91A0AA",
"| 	c #BEC9D1",
"1 	c #F1F3F5",
"2 	c #F3F5F7",
"3 	c #EFF2F4",
"4 	c #ECEFF2",
"5 	c #E5EAEE",
"6 	c #E2E7EC",
"7 	c #DFE4E9",
"8 	c #DBE2E7",
"9 	c #D8DFE5",
"0 	c #D5DCE3",
"a 	c #617480",
"b 	c #59707E",
"c 	c #CCD4DA",
"d 	c #8195A1",
"e 	c #B4BFC7",
"f 	c #E4E8EC",
"g 	c #DDE3E8",
"h 	c #DAE0E6",
"i 	c #D6DDE4",
"j 	c #D3DBE2",
"k 	c #D0D8DF",
"l 	c #788994",
"m 	c #546B78",
"n 	c #728897",
"o 	c #92A4AF",
"p 	c #788C98",
"q 	c #B2BDC4",
"r 	c #DEE4E9",
"s 	c #DBE1E7",
"t 	c #D4DCE3",
"u 	c #D1D9E0",
"v 	c #CED6DE",
"w 	c #CBD4DC",
"x 	c #96A4AE",
"y 	c #4F6673",
"z 	c #748A97",
"A 	c #8497A5",
"B 	c #708795",
"C 	c #5B6F7A",
"D 	c #AEB9C2",
"E 	c #D3DAE1",
"F 	c #CCD5DD",
"G 	c #C9D2DB",
"H 	c #C5CFD8",
"I 	c #A0AEB9",
"J 	c #324955",
"K 	c #728894",
"L 	c #798E9B",
"M 	c #9EADBB",
"N 	c #A4B3BE",
"O 	c #253C47",
"P 	c #4E636E",
"Q 	c #60737F",
"R 	c #697C88",
"S 	c #647783",
"T 	c #4F6571",
"U 	c #3C535F",
"V 	c #1B323C",
"W 	c #3D535E",
"X 	c #A5B4BE",
"Y 	c #A3B1BE",
"Z 	c #7B8C97",
"` 	c #8C9AA3",
" .	c #7B909B",
"..	c #788D99",
"+.	c #6D838F",
"@.	c #6C828E",
"#.	c #7B909C",
"$.	c #314752",
"%.	c #2C424D",
"&.	c #C6CFD6",
"*.	c #9BA8B1",
"=.	c #7A8B96",
"-.	c #D2DAE0",
";.	c #93A5AF",
">.	c #768C98",
",.	c #93A4AE",
"'.	c #768792",
").	c #5B6F7B",
"!.	c #B7BFC6",
"~.	c #5F737F",
"{.	c #BBC6D0",
"].	c #C2CCD6",
"^.	c #96A7B3",
"/.	c #A1B0BB",
"(.	c #B7C3CD",
"_.	c #435A66",
":.	c #607583",
"<.	c #36424E",
"[.	c #73828F",
"}.	c #9BAAB8",
"|.	c #A0AFBD",
"1.	c #99A8B6",
"2.	c #637481",
"3.	c #1F2F3B",
"4.	c #1C242F",
"5.	c #1E2732",
"6.	c #1C2531",
"7.	c #1B2530",
"8.	c #1B2430",
"9.	c #1A242F",
"                                                ",
"                                                ",
"                                                ",
"                                                ",
"                                                ",
"                                                ",
"        . + @ # $ $ % & * = $ $ @ @ + -         ",
"        ; > , ' ) ! ~ { ] ^ / ( _ : < @         ",
"        [ } | 1 2 3 4 5 6 7 8 9 0 a b [         ",
"        $ c d e ] ^ f g h i j k l m n $         ",
"        $ 5 o p q r s t u v w x y z A $         ",
"        $ 5 w B C D E F G H I J K L M $         ",
"        $ 5 u N O P Q R S T U V W X Y $         ",
"        $ 5 u Z `  ...+.@...#.$.%.&.Y $         ",
"        $ 5 *.=.9 -.;.>.>.>.>.,.'.).Y $         ",
"        [ !.~.{.].].].^.^./.(.].]._.:.[         ",
"        @ <.[.}.|.|.|.|.|.|.|.|.1.2.3.@         ",
"        - ; @ $ $ 4.5.6.7.8.9.$ [ @ ; -         ",
"                                                ",
"                                                ",
"                                                ",
"                                                ",
"                                                ",
"                                                "};
